/* XPM */
static const char * no_tex_xpm[] = {
"64 64 65 1",
" 	c None",
".	c #0900EC",
"+	c #0804E3",
"@	c #0C00F4",
"#	c #0008FF",
"$	c #1600FF",
"%	c #2600DC",
"&	c #1B00FF",
"*	c #2603D5",
"=	c #2900E6",
"-	c #3302C6",
";	c #3400CE",
">	c #3F00C1",
",	c #3700D7",
"'	c #4700BC",
")	c #4200CA",
"!	c #4902B6",
"~	c #5000B1",
"{	c #5800AD",
"]	c #5703A6",
"^	c #5D00A7",
"/	c #62009D",
"(	c #5D02A2",
"_	c #670099",
":	c #6D0096",
"<	c #700090",
"[	c #76008D",
"}	c #7A0089",
"|	c #7E0085",
"1	c #85007D",
"2	c #880079",
"3	c #8C0076",
"4	c #8F0072",
"5	c #92006E",
"6	c #95006B",
"7	c #970066",
"8	c #9B0263",
"9	c #9D035F",
"0	c #A5005D",
"a	c #A70059",
"b	c #AB0056",
"c	c #AD0052",
"d	c #AF014E",
"e	c #B8004D",
"f	c #BA0049",
"g	c #BC0045",
"h	c #BE0041",
"i	c #C0003D",
"j	c #B2054B",
"k	c #C7003A",
"l	c #CA0037",
"m	c #CC0033",
"n	c #CE002E",
"o	c #D6002C",
"p	c #D90028",
"q	c #DB0023",
"r	c #DD031E",
"s	c #E80015",
"t	c #E6001B",
"u	c #E40021",
"v	c #EF0011",
"w	c #F4000A",
"x	c #FF0000",
"y	c #FE0005",
"z	c #F70600",
"$$$$$$$$$$$$$$$$$$$$$$$$$$$$$$$$$$$$$$$$$$$$$$$$$$$$$$$$$$$$$$$$",
"$$$$$$$$$$$$$$$$$$$$$$$$$$$$$$$$$$$$$$$$$$$$$$$$$$$$$$$$$$$$$$$$",
"$$$$$$$$$$$$$$$$$$$$$$$$$$$$$$$$$$$$$$$$$$$$$$$$$$$$$$$$$$$$$$$$",
"$$$$$$$$$$$$$$$$$$$$$$$$$$$$$$$$$$$$$$$$$$$$$$$$$$$$$$$$$$$$$$$$",
"$$##########################################################$$$$",
"##$$$$$$$$$$$$$$$$$$$$$$$$$$$$$$$$$$$$$$$$$$$$$$$$$$$$$$$$$$#$$$",
"$$##@##@##@##@##@##%xxxxxv@$@##2xxxxxs@##@##@##@##@##@##@##$##$$",
"$@$$$$$$$$$$$$$$$$$$@[xxxx(#$$$@@}xt+@$$$$$$$$$$$$$$$$$$$$$#$$$$",
"$$#$@#$@@$@#$@@$$@@#@2xxxxm$@#$@#]x}@$@#$@@$@#$@@$@#$@@$@#$@$#$$",
"$@$$$$$$$$$$$$$$#$$$$gttxxx*$$$$$1x*$$$$$$$$$$$$$$$$$$$$$$#$#$$$",
"$$#$@@$$@$@@$$$$$$$$@s0|xxx9$$$@@js$@$@@$$@$@@$$@$@@$$@$@$$$$@$$",
"$@$$$$$$$$$$$$@@$$#$%x_+yxxz.@$$$sj$$$$$;6nwysg]$$$$$$$$$@$##$$$",
"$$#$$@@$@$$@$$$@#$@#/x*@9xxy}@$$+y}$@$$9xxy1)axxf$$@@$@$$@$$$#$$",
"$@$$$$$$$$$$@$$$$@$$8w@$)xxxq$$$(x-$$$gyxx($$.xxx|$$$$$$$$@#$$$$",
"$$@#$$@$@#$$$$$@$$$$ni$#@lxxx!@$5x@$@|xxxh#@$@xxxp$$@$@$$$$@$#$$",
"$@$$$$$$$$$$@@$$$$$@x3$$$]xxxg$$ll@$.zxxx-$$$=xxzz$$$$$@$$#$#$$$",
"$$@@#$@$$$$$$#$$@@@-x~#$$@sxyx%@w6$$|xxxq@$@@~xxyw@$@$$@$$$$$@$$",
"$$$$$$$$@@@$$$$#$$$|x+$$$@1xxx6;x{@$kxxx1$$$$6xxxl$$$$$$@@$##$$$",
"$$$@@$$$$$$$@@$$$$@js#@@$#+yxxv|x+$@wxxx!$$$@rxxy}@$@$$$$@$$$#$$",
"$$$$$$@$$$@@$$@$$$$vd$$$$$$cxxzws$@$zxxx+@$$>xxxw.$$$@$$$$@#$$$$",
"$$$$$$$$$$$$$$@@#$;y1$$$@@#>xxxxe$$$rxxy$$$@hxxy|$@$$@$$$$$@$#$$",
"$@$$@$@@@$$$$$$$$$|x]$$@$$$@pxxx}$$$2xxx@#$^xxxh@$$$$$@@$$#$#$$$",
"$$$$$$$$$$@@$$$@@+tx}@$$$@$@<xxx>@$$@kxxa>|zxxa@$$@$$$$@$$$$$@$$",
"$@@$@$$$#@$$@$$$sxxxyy2$$$$$@vxz@$@$$@:ivxzp9>$$@$$@$$$$@@$##$$$",
"$$$$$$$$$$$$@#$$@@$@$$@#$$$$$@$$$$@@@$$@@$$$@$$$$$$@$$$$$@$$$#$$",
"$$@$@@@@$$$$$$$$$$#$@$$$$@@@@$$@$$$$$@#$$@$#$@@$@$$$@@$$$$@#$$$$",
"$$$$$$$$@@$$@@@$$$$$@$$@$$$$$$$@$$$$$$$$$$$$$$$$@$$$$@$$$$$@$#$$",
"$$@$$$$@$$@$$$$@$@$$$$@$$$$$$@$$@$$$$@$$$#@@$$@$$@$$$$@@$$#$#$$$",
"$$$$$$$$$$@$$$$@$@$$@$$$$$$@$$$$@@@$$@@$$$$$$$$$$@$$$$$@$$$$$@$$",
"$$@@@@$$$$$$$$$$$$@$$$$$@@@$$@$$$$$@$$$@@$$@@$@$$$@@$$$$@@$##$$$",
"$$$$$$@@$$@@@$$$$$@$$@@$$$$$$@$$$$$$$$$$$$$$$$@$$$$@$$$$$@$$$#$$",
"$$$$$#$$@$$$$@$@$$$$@$$$$$$@$$@$$$$@$$$$@@$$@$$@$$$$@@$$$$@#$$$$",
"$$$$$$$$@$$$$@$@$$@$$$$$$@$$$$@@@$$@@$$$$$$$$$$@$$$$$@$$$$$@$#$$",
"$@@@@$$$$$$$$$$$@$$$$$$$@$$@$$$$$@$$$@@$$@@$@$$$@@$$$$@@$$#$#$$$",
"$$$$@#$$@@@$$$$$@$$@@@@$$$$@$$$$$$$$$$$$$$$$#$$$$@$$$$$@$$$$$@$$",
"$$$$$$@$$$$@$@$$$$#$$$$$$@$$@$$$$@$$$$@@$$@$$@$$$$@@$$$$@@$##$$$",
"$$$$@$@$$$$@$@$$@$$$$$$@$$$$@@@$$@@$$$$$$$$@$@$$$$$@$$$$$@$$$#$$",
"$@@$$$$$$$$$$$@$$@$$$$$$$@$$$$$@$$$@@$$@@$@$$$@@$$$$@@$$$$@#$$$$",
"$$@$$$@@@$$$$$@$$@@@@@$$$@$$$$$$$$$$$$$$$$$$$$$@$$$$$@$$$$$@$#$$",
"$$$$@$$$$@$@$$@yyyyyyyxxyyxxxz@@$$$$@@$$@$$@$$$$@@$$$$@@$$#$#$$$",
"$$@$@$$$$@$@$$-xy5>-kyxx/-]qxp$@@$$$$$$$$@$@$$$$$@$$$$$@$$$$$@$$",
"$$$$$$$$$$$$@$[x]$#@txxy@$$-x8$$$@@$$@@$@$$$@@$$$$@@$$$$@@$##$$$",
"$$$$@@@$$$$$$@cf#@$+xxxn@@$@y/$$$$$$$$$$$$$$$@$$$$$@$$$$$@$$$#$$",
"@$@$$$$@$@$$#$t-$$${xxx6$$$$w*$$$$@@$$@$$@$$$$@@$$$$@@$$$$@#$$$$",
"$$@$$$$@$@$$$@$@$$@3xxx^$@@$$@@$$+2owyo<$@$$'5q-$$~pw4$$$$$@$#$$",
"@$$$$$$$$$@@$$@$$#$kxxx%$$$@$$$$<zyp{_yy3;cwxyy<@{yyyw@@$$#$#$$$",
"$$@@@$$$$$$#$$$@$$.wxxs$$$$$$$@|xxr.$@zyz!79yxxb+wxxxf$#$$$$$@$$",
"$$$$$@$@$$$$$$$$@#*xxxd@$$$@$${xxx-$#-xyv@$$kxxtim(^{@$$@@$##$$$",
"$$$$$@$@$$@@$@$$$@<xxx}$$$$@#@sxxl@$$ixy6$@#|xyym@$@$$@$$#$$$#$$",
"@$$$$$$$#@$$@$$$#$axxx)@@@$$$_xxx/$.exxc@@$$*xyx_$$$$$$$$$@#$$$$",
"$@@$$$$$$$$$$@$$$$rxxz@$$$$@$jxxx:5wxi~$$$@#$sxxd#$@@$$$@$$@$#$$",
"@$$@$@$@$$$$$$@@$.yxxm$$$@$$$vxxzq9/=$$$$$$$;xxxz@$$$$@@$$#$#$$$",
"$$$@$@$$@@$@$$$$@~xxx6$$$@$@$zxxz$@$@@@2@$@@khxyy!$$*c$$$$$$$@$$",
"$$$$$$$@$$@$$$$$$2xxx^$@$$$$@wxxx=$@$$ge5;$[o*xxx9$$i1$$@@$##$$$",
"$$$$$$$$$$$@$$@$#hxxx%$$$@$$$exxx5$$%ilpxyky'$rxxw;8t@@$$@$$$#$$",
"@@$@$@$$$$$$@@$@*zxxx+@@$$$$$*wxxyqmzf.wxxz7#@|xxyxv%$$$$$@#$$$$",
"$#$@$$@@$@$$$$|xxxxxyyy+$@$$@$;dvzse!$$<vw4$$#@azsb%@$$$$$$@$#$$",
"$$$$$@$$@$$$$$$$$$$$@$$@$$$$$@$$$$$$@$$#@$@@$$$@@$@@$$@@$$#$#$$$",
"$$$$$$$$$@$$@@@@@@$$@#$@$@@@$@@#$$$$@$$$$$$$#@$$#$$$$$$@$$$$$@$$",
"@@$@$$$$$$@#$$$$$$@$$$$$$$$$$$$$$$$$$@@$$$$$$$$$$$$$@$$$@@$##$$$",
"$#$$@@$@$$$$$$$$$$$$@$$@$$$$$$@$$@$$$$$@@$@@$$$@$@@$$$$$$@$$$#$$",
"$$$@$$@$$$@$$$$$$$#$$@$$$$$@$$$@@$@$$$#$$@$$$@@$@$$$$$$$$$@#$$$$",
"$$$$$$$@$$@@@@@@$$@$$@$@@$$@#$$$$$@$$$$$$$$@$$$$$$$@@@$$$$$@$#$$",
"@@$$$$$$@$$$$$$$@@$$$$$$$@$$$$$$$$$@@@$$$$$$$$$$$$@$$$@@$$#$#$$$"};
